<svg width="180" height="24" viewBox="0 0 180 24" fill="none" xmlns="http://www.w3.org/2000/svg">
<path d="M22.3528 0H15.2132C14.0302 0 13.0713 0.958951 13.0713 2.14188V10.5815C13.0713 11.1552 13.3014 11.7049 13.7102 12.1075L17.0249 15.3722C17.8618 16.1965 19.2064 16.1929 20.0389 15.3643L23.8638 11.557C24.2676 11.155 24.4946 10.6087 24.4946 10.039V2.14188C24.4946 0.958953 23.5357 0 22.3528 0Z" fill="white"/>
<path d="M2.14188 0.00012207H9.28146C10.4644 0.00012207 11.4233 0.959073 11.4233 2.142V11.6896C11.4233 12.2576 11.649 12.8024 12.0507 13.2041L15.6205 16.7739C16.4569 17.6104 16.4569 18.9665 15.6205 19.803L12.9379 22.4856C12.1014 23.322 10.7453 23.322 9.9088 22.4856L5.71167 18.2885L0.627341 13.2041C0.225661 12.8024 0 12.2576 0 11.6896V2.142C0 0.959073 0.95895 0.00012207 2.14188 0.00012207Z" fill="white"/>
<path d="M146.188 20.4466V3.56042H149.598V10.5725H152.007L156.396 3.56042H160.307L154.869 11.765L160.283 20.4466H156.3L152.126 13.7208H149.598V20.4466H146.188Z" fill="white"/>
<path d="M127.466 20.4466L134.049 3.56042H137.865L144.376 20.4466H140.703L139.654 17.5607H132.189L131.139 20.4466H127.466ZM133.286 14.484H138.581L135.957 7.18571L133.286 14.484Z" fill="white"/>
<path d="M115.117 20.4466V3.56042H121.699C122.987 3.56042 124.108 3.75918 125.062 4.15669C126.032 4.5383 126.78 5.15841 127.304 6.01703C127.829 6.85975 128.091 7.98867 128.091 9.40381C128.091 10.7235 127.797 11.8286 127.209 12.719C126.637 13.6095 125.849 14.2773 124.848 14.7225C123.846 15.1518 122.709 15.3664 121.437 15.3664H118.527V20.4466H115.117ZM118.527 12.3136H121.389C122.407 12.3136 123.21 12.0751 123.798 11.5981C124.403 11.1051 124.705 10.3658 124.705 9.37996C124.705 8.48953 124.45 7.82967 123.941 7.40036C123.448 6.95515 122.653 6.73254 121.556 6.73254H118.527V12.3136Z" fill="white"/>
<path d="M104.51 20.4466V6.73254H99.3579V3.56042H113.12V6.73254H107.944V20.4466H104.51Z" fill="white"/>
<path d="M82.1245 22.9653V17.2983C82.7764 17.2983 83.2614 17.1314 83.5794 16.7975C83.8974 16.4636 84.128 16.0502 84.2711 15.5572C84.4142 15.0484 84.5255 14.5158 84.605 13.9593C84.7004 13.4027 84.7719 12.8383 84.8196 12.2659C84.8673 11.6935 84.8991 11.1369 84.915 10.5963C84.9786 9.37201 85.0263 8.17948 85.0581 7.01875C85.0899 5.85803 85.1058 4.70525 85.1058 3.56042H97.0311V17.2983H99.0584V22.9653H95.6478V20.4466H85.5351V22.9653H82.1245ZM87.3001 17.2983H93.6205V6.73255H88.2541L88.1348 12.0512C88.1348 12.3692 88.119 12.7508 88.0871 13.196C88.0712 13.6254 88.0315 14.0785 87.9679 14.5555C87.9043 15.0325 87.8168 15.5095 87.7055 15.9866C87.6101 16.4636 87.475 16.9008 87.3001 17.2983Z" fill="white"/>
<path d="M64.416 20.4466L70.9988 3.56042H74.8148L81.326 20.4466H77.6531L76.6036 17.5607H69.1384L68.089 20.4466H64.416ZM70.2355 14.484H75.5304L72.9068 7.18571L70.2355 14.484Z" fill="white"/>
<path d="M47.9072 20.5182V17.2506C48.4478 17.2506 48.8771 17.1473 49.1952 16.9406C49.5291 16.7339 49.7755 16.4397 49.9345 16.0581C50.1094 15.6765 50.2366 15.2313 50.3161 14.7225C50.3956 14.2773 50.4513 13.8003 50.4831 13.2914C50.5149 12.7826 50.5308 12.2977 50.5308 11.8366C50.5467 11.3595 50.5546 10.9382 50.5546 10.5725L50.6262 3.56042H62.5992V20.4466H59.1647V6.73254H53.846L53.7983 10.7633C53.7824 11.9876 53.7506 13.1404 53.7029 14.2216C53.6711 15.2869 53.5439 16.2489 53.3213 17.1075C53.1146 17.9502 52.7489 18.6499 52.2242 19.2064C51.7313 19.6993 51.1509 20.0411 50.4831 20.2319C49.8312 20.4228 48.9726 20.5182 47.9072 20.5182Z" fill="white"/>
<path d="M33.293 20.4466V3.56042H40.6866C41.4658 3.56042 42.1733 3.63993 42.8093 3.79893C43.4612 3.94203 44.0257 4.18054 44.5027 4.51445C44.9797 4.84835 45.3454 5.29356 45.5998 5.85008C45.8702 6.40659 46.0053 7.11415 46.0053 7.97277C46.0053 8.67239 45.8463 9.3243 45.5283 9.92852C45.2103 10.5327 44.7412 10.9938 44.1211 11.3118C44.9479 11.5822 45.5998 12.0592 46.0769 12.7429C46.5539 13.4107 46.7924 14.2773 46.7924 15.3426C46.7924 16.3443 46.6095 17.1791 46.2438 17.8469C45.8781 18.4988 45.3772 19.0156 44.7412 19.3972C44.1052 19.7788 43.3738 20.0491 42.547 20.2081C41.7361 20.3671 40.8774 20.4466 39.9711 20.4466H33.293ZM36.7036 17.2983H40.2335C40.6628 17.2983 41.0603 17.2665 41.426 17.2029C41.8076 17.1393 42.1415 17.036 42.4277 16.8929C42.7139 16.7339 42.9365 16.5192 43.0955 16.2489C43.2704 15.9786 43.3579 15.6447 43.3579 15.2472C43.3579 14.8815 43.2863 14.5794 43.1432 14.3409C43.016 14.0865 42.8252 13.8798 42.5708 13.7208C42.3323 13.5617 42.0461 13.4504 41.7122 13.3868C41.3942 13.3232 41.0364 13.2914 40.6389 13.2914H36.7036V17.2983ZM36.7036 10.4532H39.828C40.2573 10.4532 40.6469 10.4135 40.9967 10.334C41.3465 10.2545 41.6407 10.1273 41.8792 9.95237C42.1177 9.77746 42.3005 9.57076 42.4277 9.33225C42.5549 9.07785 42.6185 8.77574 42.6185 8.42593C42.6185 7.96482 42.5152 7.61502 42.3085 7.37651C42.1018 7.1221 41.8156 6.9472 41.4499 6.8518C41.1 6.7564 40.6787 6.70869 40.1858 6.70869H36.7036V10.4532Z" fill="white"/>
</svg>
