<svg width="38" height="38" viewBox="0 0 38 38" fill="none" xmlns="http://www.w3.org/2000/svg">
<path d="M0.702794 29.6665C0.0801742 29.1922 0.0787743 28.2557 0.699971 27.7795L11.2928 19.659C12.0734 19.0606 13.2013 19.6161 13.2028 20.5996L13.2053 22.251C13.2062 22.9062 13.7376 23.4368 14.3928 23.4368L35.625 23.4368C36.9367 23.4368 38 24.5001 38 25.8118L38 31.5686C38 32.8802 36.9366 33.9436 35.625 33.9436L14.4109 33.9436C13.7544 33.9436 13.2225 34.4763 13.2234 35.1329L13.2259 36.8081C13.2274 37.7916 12.1011 38.3505 11.3188 37.7545L0.702794 29.6665Z" fill="black"/>
<path d="M37.2963 8.33303C37.9189 8.80737 37.9203 9.7438 37.2991 10.22L26.7072 18.3404C25.9267 18.9388 24.7987 18.3833 24.7972 17.3998L24.7947 15.7504C24.7938 15.0953 24.2624 14.5647 23.6072 14.5647L1.97949 14.5647C0.886432 14.5647 0 13.6783 0 12.5852L0 6.03735C0 4.94429 0.886432 4.05786 1.97949 4.05786L23.5881 4.05786C24.2446 4.05786 24.7766 3.52513 24.7756 2.8686L24.7731 1.19137C24.7716 0.207867 25.8979 -0.351011 26.6802 0.245014L37.2963 8.33303Z" fill="#FF1500"/>
</svg>
