<svg width="38" height="38" viewBox="0 0 38 38" fill="none" xmlns="http://www.w3.org/2000/svg">
<path d="M12.2707 26.9167C11.1776 26.9167 10.2915 26.0306 10.2915 24.9375V1.97917C10.2915 0.886102 11.1776 0 12.2707 0H22.2738C24.4456 0 26.3199 0.394287 27.8968 1.18286C29.4831 1.96267 30.7059 3.05353 31.5651 4.45544C32.4244 5.84859 32.854 7.46955 32.854 9.31832C32.854 11.1758 32.4149 12.8012 31.5368 14.1943C30.6681 15.5787 29.4264 16.6521 27.8118 17.4143C26.1971 18.1766 24.2803 18.5578 22.0614 18.5578H16.6472C15.5541 18.5578 14.668 17.6717 14.668 16.5786V15.4112C14.668 14.3182 15.5541 13.432 16.6472 13.432H20.7584C21.8159 13.432 22.6988 13.2612 23.4069 12.9195C24.1245 12.5778 24.6675 12.1002 25.0357 11.4869C25.404 10.8648 25.5881 10.1419 25.5881 9.31832C25.5881 8.48593 25.404 7.76746 25.0357 7.16288C24.6675 6.54955 24.1245 6.0764 23.4069 5.74345C22.6893 5.4105 21.8065 5.24402 20.7584 5.24402H19.2816C18.1886 5.24402 17.3025 6.13012 17.3025 7.22319V24.9375C17.3025 26.0306 16.4163 26.9167 15.3233 26.9167H12.2707Z" fill="black"/>
<rect y="30.0835" width="38" height="7.91667" rx="3.16667" fill="#FF1500"/>
</svg>
