<?xml version="1.0" encoding="utf-8"?><svg viewBox="0 0 502.66 502.66" xmlns="http://www.w3.org/2000/svg" xmlns:xlink="http://www.w3.org/1999/xlink"><style>:root>svg{display:none}:root>svg:target{display:block}</style><svg viewBox="0 0 38 38" id="back" xmlns="http://www.w3.org/2000/svg"><path d="M12.27 26.917a1.98 1.98 0 0 1-1.979-1.98V1.98A1.98 1.98 0 0 1 12.271 0h10.003c2.172 0 4.046.394 5.623 1.183 1.586.78 2.809 1.87 3.668 3.272.86 1.394 1.289 3.015 1.289 4.863 0 1.858-.44 3.483-1.317 4.876-.869 1.385-2.11 2.458-3.725 3.22-1.615.763-3.532 1.144-5.75 1.144h-5.415a1.98 1.98 0 0 1-1.979-1.98v-1.167a1.98 1.98 0 0 1 1.98-1.979h4.11c1.058 0 1.94-.17 2.649-.513.718-.341 1.26-.819 1.629-1.432.368-.622.552-1.345.552-2.169 0-.832-.184-1.55-.552-2.155-.369-.613-.912-1.087-1.63-1.42-.717-.333-1.6-.499-2.648-.499h-1.476a1.98 1.98 0 0 0-1.98 1.98v17.713a1.98 1.98 0 0 1-1.979 1.98h-3.052Z"/><rect y="30.084" width="38" height="7.917" rx="3.167"/></svg><svg viewBox="0 0 28 28" id="btn-telegram" xmlns="http://www.w3.org/2000/svg"><path d="M21 0a7 7 0 0 1 7 7v14a7 7 0 0 1-7 7H7a7 7 0 0 1-7-7V7a7 7 0 0 1 7-7h14Zm-.302 10.065c.34-2.063-.34-2.242-2.561-1.31-.847.356-6.98 2.927-11.718 5.036-1.182.526-1.47 1.073-.254 1.496.316.11 1.128.397 1.959.639 1.1.32 1.713.119 2.35-.32a2442 2442 0 0 1 6.134-4.124c.269-.18.56.19.328.415a1321.647 1321.647 0 0 0-4.402 4.258c-.977.967-.198 1.458.366 1.866.62.448 3.47 2.356 4.036 2.733 1.174.784 1.92.568 2.253-1.243.561-3.055 1.265-7.964 1.51-9.446Z"/></svg><svg viewBox="0 0 28 28" id="btn-vk" xmlns="http://www.w3.org/2000/svg"><path d="M21 0a7 7 0 0 1 7 7v14a7 7 0 0 1-7 7H7a7 7 0 0 1-7-7V7a7 7 0 0 1 7-7h14ZM6.3 9.1c.125 6.002 3.126 9.609 8.387 9.609h.3v-3.434c1.932.193 3.394 1.607 3.98 3.434H21.7c-.75-2.732-2.723-4.241-3.954-4.818 1.231-.712 2.963-2.444 3.377-4.791h-2.482c-.539 1.904-2.135 3.636-3.655 3.8V9.1h-2.482v6.656c-1.54-.385-3.482-2.251-3.568-6.656H6.3Z"/></svg><svg viewBox="0 0 28 28" id="btn-youtube" xmlns="http://www.w3.org/2000/svg"><path d="M21 0a7 7 0 0 1 7 7v14a7 7 0 0 1-7 7H7a7 7 0 0 1-7-7V7a7 7 0 0 1 7-7h14Zm-7.055 7.7c-2.357 0-4.571.193-5.75.462-.786.193-1.467.77-1.61 1.655-.143.963-.285 2.31-.285 4.043s.142 3.08.321 4.042c.144.847.822 1.464 1.608 1.657 1.25.269 3.394.46 5.752.46 2.36 0 4.504-.191 5.754-.46.786-.193 1.464-.771 1.608-1.657.142-.962.32-2.349.357-4.042-.072-1.732-.25-3.08-.43-4.043-.142-.846-.82-1.462-1.608-1.655-1.178-.27-3.358-.462-5.717-.462Zm2.43 6.16-4.358 2.695v-5.39l4.358 2.695Z"/></svg><svg viewBox="0 0 38 38" id="delivery" xmlns="http://www.w3.org/2000/svg"><rect x="2.375" y="5.542" width="33.25" height="30.083" rx="2.375"/><rect x="8.709" width="4.75" height="10.688" rx="1.583"/><rect x="9" y="16" width="20" height="5" rx="1.583"/><rect x="9" y="23.063" width="11.429" height="5" rx="1.583"/><rect x="24.938" width="4.75" height="10.688" rx="1.583"/></svg><svg viewBox="0 0 502.664 502.664" xml:space="preserve" id="icon" xmlns="http://www.w3.org/2000/svg"><path d="M153.821 358.226 0 274.337v-46.463l153.821-83.414v54.574L46.636 250.523l107.185 53.431v54.272zm26.273 29.358L282.103 115.08h32.227L212.084 387.584h-31.99zm168.749-29.358v-54.272l107.164-52.999-107.164-52.59v-53.927l153.821 83.522v46.183l-153.821 84.083z"/></svg><svg viewBox="0 0 180 24" id="logo" xmlns="http://www.w3.org/2000/svg"><path d="M22.353 0h-7.14a2.142 2.142 0 0 0-2.142 2.142v8.44c0 .573.23 1.123.64 1.525l3.314 3.265c.837.825 2.181.82 3.014-.008l3.825-3.807a2.14 2.14 0 0 0 .63-1.518V2.142A2.142 2.142 0 0 0 22.354 0Z"/><path d="M2.142 0h7.14c1.182 0 2.141.96 2.141 2.142v9.548c0 .568.226 1.112.628 1.514l3.57 3.57a2.142 2.142 0 0 1 0 3.029l-2.683 2.683a2.142 2.142 0 0 1-3.03 0l-4.196-4.198-5.085-5.084A2.142 2.142 0 0 1 0 11.69V2.142C0 .959.959 0 2.142 0Zm144.046 20.447V3.56h3.41v7.012h2.409l4.389-7.012h3.911l-5.438 8.205 5.414 8.682H156.3l-4.174-6.726h-2.528v6.726h-3.41Zm-18.722 0 6.583-16.887h3.816l6.511 16.887h-3.673l-1.049-2.886h-7.465l-1.05 2.886h-3.673Zm5.82-5.963h5.295l-2.624-7.298-2.671 7.298Zm-18.169 5.963V3.56h6.582c1.288 0 2.409.2 3.363.597.97.381 1.718 1.001 2.242 1.86.525.843.787 1.972.787 3.387 0 1.32-.294 2.425-.882 3.315-.572.89-1.36 1.558-2.361 2.004-1.002.429-2.139.643-3.411.643h-2.91v5.08h-3.41Zm3.41-8.133h2.862c1.018 0 1.821-.239 2.409-.716.605-.493.907-1.232.907-2.218 0-.89-.255-1.55-.764-1.98-.493-.445-1.288-.667-2.385-.667h-3.029v5.58Zm-14.017 8.133V6.733h-5.152V3.56h13.762v3.173h-5.176v13.714h-3.434Zm-22.386 2.518v-5.667c.652 0 1.137-.167 1.455-.5a2.96 2.96 0 0 0 .692-1.24c.143-.51.254-1.042.334-1.599.095-.556.167-1.12.215-1.693.047-.572.08-1.13.095-1.67.064-1.224.111-2.417.143-3.577.032-1.161.048-2.314.048-3.459H97.03v13.738h2.027v5.667h-3.41v-2.518H85.535v2.518h-3.41Zm5.176-5.667h6.32V6.733h-5.366l-.12 5.318c0 .318-.015.7-.047 1.145a15.054 15.054 0 0 1-.382 2.79c-.095.478-.23.915-.405 1.312Zm-22.884 3.149L70.999 3.56h3.816l6.511 16.887h-3.673l-1.05-2.886h-7.465l-1.049 2.886h-3.673Zm5.82-5.963h5.294l-2.623-7.298-2.671 7.298Zm-22.329 6.034v-3.267c.54 0 .97-.104 1.288-.31.334-.207.58-.501.74-.883a5.1 5.1 0 0 0 .381-1.335c.08-.446.135-.923.167-1.432.032-.508.048-.993.048-1.454.016-.477.024-.899.024-1.264l.071-7.013H62.6v16.887h-3.434V6.733h-5.319l-.048 4.03a111.55 111.55 0 0 1-.095 3.459c-.032 1.065-.16 2.027-.382 2.886-.206.842-.572 1.542-1.097 2.098a3.964 3.964 0 0 1-1.74 1.026c-.653.19-1.511.286-2.577.286Zm-14.614-.071V3.56h7.394c.779 0 1.486.08 2.122.239.652.143 1.217.382 1.694.715.477.334.842.78 1.097 1.336.27.557.405 1.264.405 2.123 0 .7-.159 1.351-.477 1.956a3.199 3.199 0 0 1-1.407 1.383c.827.27 1.479.747 1.956 1.43.477.669.715 1.535.715 2.6 0 1.002-.183 1.837-.548 2.505a4.137 4.137 0 0 1-1.503 1.55c-.636.382-1.367.652-2.194.811-.81.16-1.67.239-2.576.239h-6.678Zm3.41-3.149h3.53c.43 0 .827-.031 1.193-.095a3.53 3.53 0 0 0 1.002-.31c.286-.16.509-.374.668-.644.174-.27.262-.604.262-1.002 0-.365-.072-.668-.215-.906a1.53 1.53 0 0 0-.572-.62 2.308 2.308 0 0 0-.859-.334 5.497 5.497 0 0 0-1.073-.096h-3.935v4.007Zm0-6.845h3.125c.43 0 .819-.04 1.169-.119.35-.08.644-.207.882-.382.239-.175.422-.381.549-.62.127-.254.19-.556.19-.906 0-.461-.103-.811-.31-1.05-.206-.254-.492-.429-.858-.524a4.857 4.857 0 0 0-1.264-.143h-3.482v3.744Z"/></svg><svg viewBox="0 0 36 35" id="logo-fill" xmlns="http://www.w3.org/2000/svg"><path d="M32.597 0H22.185a3.124 3.124 0 0 0-3.123 3.124V15.43c0 .837.335 1.639.931 2.226l4.834 4.76a3.123 3.123 0 0 0 4.396-.01l5.578-5.553c.588-.586.92-1.383.92-2.214V3.124A3.124 3.124 0 0 0 32.597 0Z"/><path d="M3.124 0h10.412a3.124 3.124 0 0 1 3.123 3.124v13.923c0 .829.33 1.623.915 2.209l5.206 5.206a3.124 3.124 0 0 1 0 4.417l-3.912 3.912a3.124 3.124 0 0 1-4.418 0l-6.12-6.12-7.415-7.415A3.123 3.123 0 0 1 0 17.047V3.124A3.124 3.124 0 0 1 3.124 0Z"/></svg><svg viewBox="0 0 36 35" id="logo-mob" xmlns="http://www.w3.org/2000/svg"><path d="M32.597 0H22.185a3.124 3.124 0 0 0-3.123 3.124V15.43c0 .837.335 1.639.931 2.226l4.834 4.76a3.123 3.123 0 0 0 4.396-.01l5.578-5.553c.588-.586.92-1.383.92-2.214V3.124A3.124 3.124 0 0 0 32.597 0Z"/><path d="M3.124 0h10.412a3.124 3.124 0 0 1 3.123 3.124v13.923c0 .829.33 1.623.915 2.209l5.206 5.206a3.124 3.124 0 0 1 0 4.417l-3.912 3.912a3.124 3.124 0 0 1-4.418 0l-6.12-6.12-7.415-7.415A3.123 3.123 0 0 1 0 17.047V3.124A3.124 3.124 0 0 1 3.124 0Z"/></svg><svg viewBox="0 0 38 38" id="park" xmlns="http://www.w3.org/2000/svg"><path d="M.703 29.666A1.187 1.187 0 0 1 .7 27.78l10.593-8.12a1.187 1.187 0 0 1 1.91.94l.002 1.652a1.188 1.188 0 0 0 1.188 1.186h21.232A2.375 2.375 0 0 1 38 25.812v5.757a2.375 2.375 0 0 1-2.375 2.375H14.411c-.657 0-1.188.532-1.188 1.189l.003 1.675a1.187 1.187 0 0 1-1.907.947L.703 29.666ZM37.296 8.333c.623.474.624 1.41.003 1.887l-10.592 8.12c-.78.599-1.908.043-1.91-.94l-.002-1.65a1.188 1.188 0 0 0-1.188-1.185H1.98A1.98 1.98 0 0 1 0 12.585V6.037a1.98 1.98 0 0 1 1.98-1.98h21.608c.657 0 1.189-.532 1.188-1.188l-.003-1.678A1.187 1.187 0 0 1 26.68.245l10.616 8.088Z"/></svg></svg>